<svg xmlns="http://www.w3.org/2000/svg" xmlns:xlink="http://www.w3.org/1999/xlink" width="500" zoomAndPan="magnify" viewBox="0 0 375 374.999991" height="500" preserveAspectRatio="xMidYMid meet" version="1.2"><defs><clipPath id="21405433b8"><path d="M 110 117 L 341.839844 117 L 341.839844 341.839844 L 110 341.839844 Z M 110 117 "/></clipPath><clipPath id="74801d0e3c"><path d="M 32.839844 32.839844 L 265 32.839844 L 265 257 L 32.839844 257 Z M 32.839844 32.839844 "/></clipPath></defs><g id="49a7acbbf7"><g clip-rule="nonzero" clip-path="url(#21405433b8)"><path style=" stroke:none;fill-rule:nonzero;fill:#2196f3;fill-opacity:1;" d="M 225.964844 117.8125 C 289.957031 117.8125 341.839844 164.503906 341.839844 222.101562 C 341.839844 249.433594 330.058594 274.230469 310.945312 292.832031 C 310.976562 295.308594 310.9375 318.664062 341.839844 334.113281 C 341.839844 334.113281 334.113281 341.839844 314.800781 341.839844 C 272.3125 341.839844 256.863281 322.527344 256.863281 322.527344 L 256.871094 322.527344 C 247.015625 324.972656 236.683594 326.386719 225.964844 326.386719 C 161.96875 326.386719 110.089844 279.699219 110.089844 222.101562 C 110.089844 164.503906 161.96875 117.8125 225.964844 117.8125 Z M 225.964844 117.8125 "/></g><path style=" stroke:none;fill-rule:nonzero;fill:#bbdefb;fill-opacity:1;" d="M 164.164062 179.613281 L 287.761719 179.613281 L 287.761719 195.054688 L 164.164062 195.054688 Z M 164.164062 218.238281 L 287.761719 218.238281 L 287.761719 233.679688 L 164.164062 233.679688 Z M 179.613281 256.863281 L 256.863281 256.863281 L 256.863281 272.3125 L 179.613281 272.3125 Z M 179.613281 256.863281 "/><path style=" stroke:none;fill-rule:nonzero;fill:#1e88e5;fill-opacity:1;" d="M 271.339844 179.613281 C 276.871094 166.386719 280.039062 152.105469 280.039062 137.125 C 280.039062 134.621094 279.789062 132.183594 279.628906 129.71875 C 263.574219 122.15625 245.34375 117.8125 225.964844 117.8125 C 161.96875 117.8125 110.089844 164.503906 110.089844 222.101562 C 110.089844 234.714844 112.699219 246.742188 117.257812 257.9375 C 119.117188 256.761719 120.847656 255.566406 122.378906 254.359375 C 131.175781 256.019531 140.007812 256.863281 148.714844 256.863281 C 177.667969 256.863281 204.402344 248.21875 226.125 233.6875 L 225.964844 233.6875 L 225.964844 218.238281 L 245.089844 218.238281 C 252.191406 211.222656 258.4375 203.46875 263.5625 195.0625 L 256.863281 195.0625 L 256.863281 179.613281 Z M 271.339844 179.613281 "/><path style=" stroke:none;fill-rule:nonzero;fill:#64b5f6;fill-opacity:1;" d="M 164.164062 195.054688 L 263.5625 195.054688 C 266.566406 190.121094 269.105469 184.945312 271.339844 179.613281 L 164.164062 179.613281 Z M 164.164062 233.679688 L 226.046875 233.679688 C 232.914062 229.089844 239.265625 223.921875 245.035156 218.238281 L 164.164062 218.238281 Z M 164.164062 233.679688 "/><g clip-rule="nonzero" clip-path="url(#74801d0e3c)"><path style=" stroke:none;fill-rule:nonzero;fill:#ffb300;fill-opacity:1;" d="M 148.714844 32.839844 C 84.71875 32.839844 32.839844 79.527344 32.839844 137.125 C 32.839844 164.457031 44.617188 189.253906 63.730469 207.855469 C 63.699219 210.335938 63.738281 233.6875 32.839844 249.136719 C 32.839844 249.136719 40.5625 256.863281 59.875 256.863281 C 102.363281 256.863281 117.8125 237.550781 117.8125 237.550781 L 117.804688 237.550781 C 127.664062 240 137.992188 241.414062 148.714844 241.414062 C 212.707031 241.414062 264.589844 194.722656 264.589844 137.125 C 264.589844 79.527344 212.707031 32.839844 148.714844 32.839844 Z M 148.714844 32.839844 "/></g><path style=" stroke:none;fill-rule:nonzero;fill:#ffecb3;fill-opacity:1;" d="M 86.914062 94.644531 L 210.511719 94.644531 L 210.511719 110.089844 L 86.914062 110.089844 Z M 86.914062 133.261719 L 210.511719 133.261719 L 210.511719 148.714844 L 86.914062 148.714844 Z M 86.914062 171.886719 L 179.613281 171.886719 L 179.613281 187.339844 L 86.914062 187.339844 Z M 86.914062 171.886719 "/></g></svg>